# 
# Wavefront OBJ file
# Created with Autodesk FBX SDK
# 
g fbxNode
v 4.061421 -4.715000 3.773579
v 3.778579 -4.715000 3.773579
v 3.778579 -4.715000 4.056421
v 4.061421 -4.715000 4.056421
v 7.992935 0.035000 -0.157935
v -0.152935 0.035000 -0.157935
v -0.152935 0.035000 7.987936
v 7.992935 0.035000 7.987935
v 4.061421 -4.715000 3.773579
v 4.061421 -4.715000 4.056421
v 3.778579 -4.715000 4.056421
v 3.778579 -4.715000 3.773579
v 4.061421 -4.715000 3.773579
v 7.992935 0.035000 -0.157935
v -0.152935 0.035000 -0.157935
v -0.152935 0.035000 7.987936
v 7.992935 0.035000 7.987935
v 7.992935 0.035000 -0.157935
vt 0.500000 0.500000
vt 1.000000 0.500000
vt 1.250000 0.500000
vt 1.000000 0.500000
vt 0.500000 0.500000
vt 1.000000 0.500000
vt 0.500000 0.500000
vt 0.750000 0.500000
vt 1.000000 0.500000
vt 0.750000 0.500000
vt 1.250000 0.500000
vt 0.500000 0.500000
vt 1.250000 0.500000
vt 0.750000 0.500000
vt 1.000000 0.500000
vt 1.000000 0.500000
vt 0.750000 0.500000
vt 1.000000 0.500000
vt 0.250000 0.000000
vt 0.250000 1.000000
vt 0.000000 0.000000
vt 0.000000 0.000000
vt 0.250000 1.000000
vt 0.000000 1.000000
vt 0.500000 0.000000
vt 0.250000 1.000000
vt 0.250000 0.000000
vt 0.250000 1.000000
vt 0.500000 0.000000
vt 0.500000 1.000000
vt 0.500000 1.000000
vt 0.750000 0.000000
vt 0.750000 1.000000
vt 0.750000 0.000000
vt 0.500000 1.000000
vt 0.500000 0.000000
vt 0.750000 1.000000
vt 0.750000 0.000000
vt 1.000000 1.000000
vt 1.000000 1.000000
vt 0.750000 0.000000
vt 1.000000 0.000000
vn 0.459302 -0.760317 -0.459302
vn -0.459302 -0.760317 -0.459302
vn -0.459302 -0.760317 0.459302
vn 0.459302 -0.760317 0.459302
vn 0.459302 -0.760317 -0.459302
vn -0.459302 -0.760317 -0.459302
vn -0.459302 -0.760317 0.459302
vn 0.459302 -0.760317 0.459302
vn 0.000000 -1.000000 0.000000
vn 0.000000 -1.000000 0.000000
vn 0.000000 -1.000000 0.000000
vn 0.000000 -1.000000 0.000000
vn 0.000000 -1.000000 0.000000
vn 0.000000 1.000000 -0.000000
vn 0.000000 1.000000 -0.000000
vn 0.000000 1.000000 -0.000000
vn 0.000000 1.000000 -0.000000
vn 0.000000 1.000000 -0.000000
f 11/1/11 9/1/9 10/1/10
f 9/1/9 11/1/11 13/1/13
f 11/1/11 12/1/12 13/1/13
f 17/1/17 15/1/15 16/1/16
f 15/1/15 17/1/17 14/1/14
f 14/1/14 17/1/17 18/1/18
f 2/1/2 6/1/6 1/1/1
f 1/1/1 6/1/6 5/1/5
f 3/1/3 6/1/6 2/1/2
f 6/1/6 3/1/3 7/1/7
f 7/1/7 4/1/4 8/1/8
f 4/1/4 7/1/7 3/1/3
f 8/1/8 4/1/4 5/1/5
f 5/1/5 4/1/4 1/1/1
